<svg id="call_center" data-name="call center" xmlns="http://www.w3.org/2000/svg" width="81.15" height="81.215" viewBox="0 0 81.15 81.215">
  <path id="Path_11575" data-name="Path 11575" d="M42.609,2A40.607,40.607,0,1,0,59.316,79.618a2.668,2.668,0,0,0,.667-.261l1.131-.638,1.45-.725h0a8.724,8.724,0,0,0,2.61-12.907l-1.363-1.8a17.053,17.053,0,0,0,1.74-1.508,5.54,5.54,0,0,0,1.682-3.974,5.8,5.8,0,0,0-1.421-4.061l-6.381-6.41a5.8,5.8,0,0,0-3.974-1.682h0a5.8,5.8,0,0,0-3.974,1.624,8.354,8.354,0,0,1-4.351,2.291,4.525,4.525,0,0,1-4.177-1.16l-5.975-6.062A4.554,4.554,0,0,1,35.764,38.2a8.353,8.353,0,0,1,2.349-4.293,5.8,5.8,0,0,0,0-8.005l-6.236-6.5a5.8,5.8,0,0,0-8.005,0A19.463,19.463,0,0,0,19.4,25.9h0a21.551,21.551,0,0,0,4.612,23.2l11.747,11.95a21.493,21.493,0,0,0,23,4.989l1.885,2.465a2.9,2.9,0,0,1-.9,4.293l-.464.261a34.806,34.806,0,1,1,15.4-17.113,2.9,2.9,0,0,0,5.366,2.2A40.607,40.607,0,0,0,42.609,2ZM39.941,57.11,28.106,45.1a15.779,15.779,0,0,1-3.278-17h0a17.635,17.635,0,0,1,2.9-4.67l6.178,6.178a14.5,14.5,0,0,0-3.829,7.193,10.3,10.3,0,0,0,2.9,9.4l6,6.091a10.413,10.413,0,0,0,9.34,2.9,13.168,13.168,0,0,0,6.99-3.887l6.265,6.178a13.574,13.574,0,0,1-4.67,2.9A15.75,15.75,0,0,1,39.941,57.11Z" transform="translate(-1.999 -2)" fill="#ef7c00"/>
</svg>
