<svg id="Group_2300" data-name="Group 2300" xmlns="http://www.w3.org/2000/svg" width="89.048" height="79.507" viewBox="0 0 89.048 79.507">
  <g id="Group_324" data-name="Group 324" transform="translate(0)">
    <g id="chat" transform="translate(0 0)">
      <path id="Path_11576" data-name="Path 11576" d="M80.871,16.721h-8.9V14.177A10.177,10.177,0,0,0,61.79,4H12.177A10.177,10.177,0,0,0,2,14.177V44.708A10.177,10.177,0,0,0,12.177,54.885H25.471l8.682,17.333a3.18,3.18,0,0,0,5.661,0l2.322-4.611h2.576L53.33,81.949a3.18,3.18,0,0,0,5.47,0l8.619-14.343H80.871A10.177,10.177,0,0,0,91.048,57.429V26.9A10.177,10.177,0,0,0,80.871,16.721Zm-50.6,33.552a3.18,3.18,0,0,0-2.83-1.749H12.177a3.816,3.816,0,0,1-3.816-3.816V14.177a3.816,3.816,0,0,1,3.816-3.816H61.79a3.816,3.816,0,0,1,3.816,3.816V44.708a3.816,3.816,0,0,1-3.816,3.816H46.524a3.18,3.18,0,0,0-2.83,1.749l-6.71,13.389Zm54.415,7.156a3.816,3.816,0,0,1-3.816,3.816H65.606A3.18,3.18,0,0,0,62.871,62.8L56.065,74.157,49.259,62.8a3.18,3.18,0,0,0-2.735-1.558H45.316l3.18-6.361H61.79A10.177,10.177,0,0,0,71.967,44.708V23.082h8.9A3.816,3.816,0,0,1,84.688,26.9Z" transform="translate(-2 -4)" fill="#ef7c00"/>
      <path id="Path_11577" data-name="Path 11577" d="M33.243,9.689a3.18,3.18,0,0,0-4.452.509L18.3,23.3l-3.848-3.848a3.193,3.193,0,1,0-4.516,4.516l6.361,6.361a3.18,3.18,0,0,0,2.258.922h.191a3.18,3.18,0,0,0,2.29-1.209l12.721-15.9A3.18,3.18,0,0,0,33.243,9.689Z" transform="translate(13.253 6.912)" fill="#ef7c00"/>
    </g>
  </g>
</svg>
