<svg id="location" xmlns="http://www.w3.org/2000/svg" width="66.545" height="81.215" viewBox="0 0 66.545 81.215">
  <path id="Path_11573" data-name="Path 11573" d="M70.406,75.659,61.263,59.666a5.08,5.08,0,0,0-4.383-2.554H50.871A81.825,81.825,0,0,0,57.9,43.7,82.577,82.577,0,0,0,61.582,32.73a24.556,24.556,0,1,0-47.544,0A82.577,82.577,0,0,0,17.724,43.7a84.174,84.174,0,0,0,7.024,13.41H18.74a5.08,5.08,0,0,0-4.383,2.554L5.214,75.659a5.051,5.051,0,0,0,0,5.051A4.992,4.992,0,0,0,9.6,83.235H66.023a4.992,4.992,0,0,0,4.383-2.525A5.051,5.051,0,0,0,70.406,75.659ZM19.668,31.279a18.751,18.751,0,1,1,36.282,0,79.53,79.53,0,0,1-3.4,10.217A77.557,77.557,0,0,1,37.81,64.513,77.557,77.557,0,0,1,23.064,41.5a79.532,79.532,0,0,1-3.4-10.217ZM10.874,77.43l8.3-14.513H28.87a87.778,87.778,0,0,0,6.879,7.866,2.9,2.9,0,0,0,4.122,0,87.772,87.772,0,0,0,6.879-7.866h9.695l8.3,14.513Z" transform="translate(-4.537 -2.02)" fill="#ef7c00"/>
  <path id="Path_11574" data-name="Path 11574" d="M35.221,18.61a11.61,11.61,0,1,0-11.61,11.61A11.61,11.61,0,0,0,35.221,18.61Zm-17.416,0a5.805,5.805,0,1,1,5.805,5.805A5.805,5.805,0,0,1,17.805,18.61Z" transform="translate(9.662 7.456)" fill="#ef7c00"/>
</svg>
